# Blender v2.79 (sub 0) OBJ File: ''
# www.blender.org
mtllib Crystal Triangle.mtl
o Crystal_Triangle
v -0.834560 -0.012119 -0.616843
v -0.834560 -0.012119 -0.424914
v -0.569746 -0.012119 -0.654973
v -0.181250 -0.012119 -0.939968
v -0.808321 -0.012119 -0.303247
v -0.568957 -0.012119 0.060503
v -0.181250 -0.012119 -0.301997
v -0.181250 -0.012119 0.060503
v -0.737501 0.169131 -0.495748
v -0.737501 0.531631 -0.495748
v -0.737501 0.169131 -0.395747
v -0.737501 0.531631 -0.420747
v -0.733334 0.771214 -0.474914
v -0.543750 0.169131 -0.576475
v -0.543750 0.531631 -0.508249
v -0.181250 0.169131 -0.864039
v -0.181250 0.531631 -0.817617
v -0.687500 0.169131 -0.214497
v -0.550003 0.169131 0.060503
v -0.662500 0.531631 -0.239497
v -0.475001 0.562881 0.086752
v -0.358335 0.704547 0.225085
v -0.543750 0.825380 -0.495748
v -0.215001 0.912880 -0.743183
v -0.100002 1.256631 -0.690081
v -0.529168 0.908713 -0.337414
v -0.431252 0.894131 -0.014499
v -0.406253 1.256631 -0.264497
v -0.406253 1.256631 -0.064499
v -0.358335 1.046213 -0.458247
v -0.331252 0.894131 0.166751
v -0.281252 1.256631 -0.445747
v -0.306252 1.256631 0.116751
v -0.498784 -0.012119 0.258419
v -0.377240 -0.012119 0.396752
v -0.176308 -0.012119 0.785503
v -0.117974 -0.012119 1.147596
v -0.406253 0.169131 0.266752
v -0.391669 0.462880 0.258419
v -0.306252 0.169131 0.448002
v -0.150004 0.169131 0.785503
v -0.295002 0.562880 0.396752
v -0.125004 0.531631 0.785503
v -0.025002 0.169131 1.029251
v -0.025002 0.531631 1.004251
v -0.200004 0.894131 0.423003
v -0.050002 0.912880 0.786752
v -0.150004 1.256631 0.423003
v -0.025002 1.256631 0.698000
v -0.000001 0.804546 0.975085
v -0.000001 1.469076 -0.582345
v -0.391669 1.554547 -0.149914
v -0.187501 1.642047 -0.337414
v -0.295002 1.652881 0.046752
v -0.175002 1.981631 -0.239497
v -0.250004 1.981631 0.060503
v -0.150002 2.344131 -0.189498
v -0.150002 2.372881 0.086753
v -0.000001 2.646213 -0.083248
v -0.090002 1.652881 0.436753
v -0.000001 1.554547 0.666751
v -0.075002 1.981631 0.366753
v -0.000001 2.173548 0.257373
v 0.181250 -0.012119 -0.939968
v 0.593177 -0.012119 -0.654973
v 0.181250 -0.012119 -0.301997
v 0.181250 -0.012119 0.060503
v 0.827988 -0.012119 -0.303247
v 0.617317 -0.012119 0.060503
v 0.835252 -0.012119 -0.552073
v 0.835252 -0.012119 -0.424914
v 0.181250 0.169131 -0.864039
v 0.181250 0.531631 -0.817617
v 0.543750 0.169131 -0.576475
v 0.543750 0.531631 -0.508249
v 0.358333 0.704547 0.225085
v 0.687498 0.169131 -0.214497
v 0.549998 0.169131 0.060503
v 0.662498 0.531631 -0.239497
v 0.474998 0.562881 0.086752
v 0.215000 0.912880 -0.743183
v 0.099999 1.256631 -0.690081
v 0.543750 0.825380 -0.495748
v 0.358333 1.046213 -0.458247
v 0.331249 0.894131 0.166751
v 0.281249 1.256631 -0.445747
v 0.306249 1.256631 0.116751
v 0.529166 0.908713 -0.337414
v 0.431249 0.894131 -0.014499
v 0.406250 1.256631 -0.264497
v 0.406250 1.256631 -0.064499
v 0.737498 0.169131 -0.495748
v 0.737498 0.531631 -0.495748
v 0.737498 0.169131 -0.395747
v 0.737498 0.531631 -0.420747
v 0.733332 0.771214 -0.474914
v 0.391072 -0.012119 0.435137
v 0.224527 -0.012119 0.785503
v 0.444448 -0.012119 0.258419
v 0.166194 -0.012119 1.147596
v 0.306249 0.169131 0.448002
v 0.149998 0.169131 0.785503
v 0.294999 0.562880 0.396752
v 0.124998 0.531631 0.785503
v 0.406250 0.169131 0.266752
v 0.391667 0.462880 0.258419
v 0.024999 0.169131 1.029251
v 0.024999 0.531631 1.004251
v 0.199998 0.894131 0.423003
v 0.049999 0.912880 0.786752
v 0.149998 1.256631 0.423003
v 0.024999 1.256631 0.698000
v 0.187499 1.642047 -0.337414
v 0.294999 1.652881 0.046752
v 0.175000 1.981631 -0.239497
v 0.249999 1.981631 0.060503
v 0.391667 1.554547 -0.149914
v 0.149999 2.344131 -0.189498
v 0.149999 2.372881 0.086753
v 0.089999 1.652881 0.436753
v 0.074999 1.981631 0.366753
vn 0.0000 -1.0000 0.0000
vn -0.6309 0.1212 -0.7663
vn -0.8764 0.1151 0.4677
vn -0.9631 0.1945 0.1858
vn -0.7437 0.3532 -0.5676
vn -0.8686 0.1260 0.4792
vn -0.2329 0.0911 -0.9682
vn -0.9439 0.0550 0.3255
vn -0.6311 0.0680 -0.7728
vn -0.8695 0.3225 0.3740
vn -0.8490 0.2569 0.4617
vn -1.0000 0.0000 0.0000
vn -0.7651 0.3306 -0.5525
vn -0.6295 0.6102 -0.4811
vn -0.9998 0.0174 0.0000
vn -0.2916 0.8573 -0.4243
vn -0.0953 0.0628 -0.9935
vn -0.7776 0.3085 0.5479
vn -0.5663 0.3571 -0.7428
vn -0.8433 0.2033 0.4975
vn -0.8816 0.4721 0.0000
vn -0.2134 0.5258 -0.8234
vn -0.8662 0.4497 0.2180
vn -0.9087 0.0714 0.4113
vn -0.8596 0.0761 0.5052
vn -0.9103 0.1454 0.3876
vn -0.9005 0.1999 0.3862
vn -0.8983 0.0460 0.4370
vn -0.9127 0.1557 0.3777
vn -0.8834 0.1757 0.4345
vn -0.7920 0.2670 0.5490
vn -0.8857 0.3790 0.2680
vn -0.9581 0.1255 -0.2576
vn -0.5144 0.8410 -0.1677
vn -0.8879 0.4576 -0.0476
vn -0.9751 0.1754 -0.1357
vn 0.6309 0.1212 -0.7663
vn 0.8763 0.1151 0.4677
vn 0.9631 0.1945 0.1858
vn 0.7437 0.3532 -0.5675
vn 0.8686 0.1260 0.4792
vn 0.2329 0.0911 -0.9682
vn 0.9439 0.0550 0.3255
vn 0.6311 0.0680 -0.7728
vn 0.8695 0.3225 0.3740
vn 0.8490 0.2569 0.4617
vn 0.7651 0.3306 -0.5525
vn 0.6295 0.6102 -0.4811
vn 1.0000 0.0000 0.0000
vn 0.9998 0.0174 0.0000
vn 0.2916 0.8573 -0.4243
vn 0.0953 0.0628 -0.9935
vn 0.7776 0.3085 0.5479
vn 0.5474 0.3901 -0.7404
vn 0.8191 0.3602 0.4465
vn 0.8802 0.4747 0.0000
vn 0.3472 0.4475 -0.8241
vn 0.8480 0.5052 0.1603
vn 0.9087 0.0714 0.4113
vn 0.8596 0.0761 0.5052
vn 0.9103 0.1454 0.3876
vn 0.9005 0.1999 0.3862
vn 0.8983 0.0460 0.4370
vn 0.9127 0.1556 0.3777
vn 0.8454 0.3576 0.3967
vn 0.8831 0.2776 0.3784
vn 0.7973 0.5532 0.2413
vn 0.9581 0.1255 -0.2576
vn 0.5144 0.8410 -0.1677
vn 0.8879 0.4576 -0.0476
vn 0.9751 0.1754 -0.1357
vn 0.0000 0.1270 -0.9919
vn 0.0000 0.1527 -0.9883
vn 0.0000 0.1916 -0.9815
vn 0.0000 0.3864 -0.9223
vn 0.0000 0.0688 0.9976
vn 0.0000 0.2500 0.9682
vn 0.0000 0.8668 0.4986
vn 0.0000 0.1063 0.9943
vn 0.0000 0.5467 0.8373
vn 0.0000 0.2771 -0.9609
vn 0.0000 0.3318 -0.9433
vn 0.0000 0.5281 0.8492
vn 0.0000 0.8168 -0.5769
vn 0.0000 0.1366 -0.9906
vn 0.0000 0.9195 0.3931
vn 0.0000 0.2083 0.9781
vn 0.0000 0.4952 0.8688
vn -0.9988 0.0489 0.0000
vn -0.7445 0.3108 -0.5909
vn -0.8930 0.1297 0.4310
vn -0.6378 0.4361 -0.6349
vn 0.9988 0.0489 0.0000
vn 0.7445 0.3108 -0.5909
vn 0.8930 0.1297 0.4310
vn 0.6378 0.4361 -0.6349
vn -0.9046 0.1211 0.4087
vn 0.9046 0.1211 0.4087
vn -0.8418 0.0959 0.5312
vn -0.8498 0.1853 0.4934
vn -0.8837 0.1226 0.4517
vn -0.8553 0.2291 0.4648
vn -0.8552 0.2526 0.4526
vn -0.8714 0.1202 0.4756
vn -0.7227 0.3053 0.6201
vn 0.8418 0.0958 0.5312
vn 0.8498 0.1853 0.4934
vn 0.8837 0.1226 0.4517
vn 0.8553 0.2291 0.4648
vn 0.7696 0.2102 0.6029
vn 0.8714 0.1202 0.4756
vn 0.7227 0.3053 0.6201
vn -0.8821 0.1118 0.4577
vn 0.8821 0.1118 0.4577
vn 0.0000 0.6503 0.7597
vn 0.0000 0.4523 -0.8919
vn 0.0000 0.1043 0.9945
usemtl palette
s off
f 5//1 7//1 8//1 6//1
f 3//1 4//1 7//1 5//1
f 1//1 3//1 5//1 2//1
f 14//2 15//2 17//2 16//2
f 18//3 19//3 21//3 20//3
f 26//4 27//4 29//4 28//4
f 26//5 28//5 32//5 30//5
f 31//6 33//6 29//6 27//6
f 9//7 10//7 15//7 14//7
f 18//8 20//8 12//8 11//8
f 15//9 23//9 24//9 17//9
f 20//10 21//10 27//10 26//10
f 22//11 31//11 27//11 21//11
f 9//12 11//12 12//12 10//12
f 24//13 30//13 32//13 25//13
f 26//14 30//14 24//14 23//14
f 10//15 12//15 13//15
f 13//16 26//16 23//16
f 10//17 13//17 23//17 15//17
f 20//18 26//18 13//18 12//18
f 3//19 14//19 16//19 4//19
f 5//20 6//20 19//20 18//20
f 1//21 2//21 11//21 9//21
f 1//22 9//22 14//22 3//22
f 5//23 18//23 11//23 2//23
f 40//24 41//24 43//24 42//24
f 40//25 42//25 39//25 38//25
f 46//26 47//26 49//26 48//26
f 42//27 43//27 47//27 46//27
f 41//28 44//28 45//28 43//28
f 43//29 45//29 50//29 47//29
f 35//30 36//30 41//30 40//30
f 35//31 40//31 38//31 34//31
f 36//32 37//32 44//32 41//32
f 53//33 54//33 56//33 55//33
f 52//34 54//34 53//34
f 57//35 58//35 59//35
f 55//36 56//36 58//36 57//36
f 66//1 68//1 69//1 67//1
f 64//1 65//1 68//1 66//1
f 65//1 70//1 71//1 68//1
f 72//37 73//37 75//37 74//37
f 79//38 80//38 78//38 77//38
f 90//39 91//39 89//39 88//39
f 84//40 86//40 90//40 88//40
f 89//41 91//41 87//41 85//41
f 74//42 75//42 93//42 92//42
f 94//43 95//43 79//43 77//43
f 73//44 81//44 83//44 75//44
f 88//45 89//45 80//45 79//45
f 80//46 89//46 85//46 76//46
f 82//47 86//47 84//47 81//47
f 84//48 88//48 83//48 81//48
f 93//49 95//49 94//49 92//49
f 96//50 95//50 93//50
f 88//51 96//51 83//51
f 75//52 83//52 96//52 93//52
f 95//53 96//53 88//53 79//53
f 64//54 72//54 74//54 65//54
f 77//55 78//55 69//55 68//55
f 92//56 94//56 71//56 70//56
f 65//57 74//57 92//57 70//57
f 71//58 94//58 77//58 68//58
f 103//59 104//59 102//59 101//59
f 105//60 106//60 103//60 101//60
f 111//61 112//61 110//61 109//61
f 109//62 110//62 104//62 103//62
f 104//63 108//63 107//63 102//63
f 110//64 50//64 108//64 104//64
f 101//65 102//65 98//65 97//65
f 99//66 105//66 101//66 97//66
f 102//67 107//67 100//67 98//67
f 115//68 116//68 114//68 113//68
f 114//69 117//69 113//69
f 59//70 119//70 118//70
f 118//71 119//71 116//71 115//71
f 7//1 66//1 67//1 8//1
f 4//1 64//1 66//1 7//1
f 16//72 17//72 73//72 72//72
f 24//73 25//73 82//73 81//73
f 17//74 24//74 81//74 73//74
f 4//75 16//75 72//75 64//75
f 35//1 97//1 98//1 36//1
f 36//1 98//1 100//1 37//1
f 107//76 108//76 45//76 44//76
f 110//77 112//77 49//77 47//77
f 50//78 110//78 47//78
f 108//79 50//79 45//79
f 100//80 107//80 44//80 37//80
f 53//81 55//81 115//81 113//81
f 57//82 59//82 118//82
f 119//83 59//83 58//83
f 53//84 113//84 51//84
f 55//85 57//85 118//85 115//85
f 61//86 120//86 60//86
f 120//87 121//87 62//87 60//87
f 121//88 63//88 62//88
f 28//89 29//89 52//89
f 28//90 52//90 53//90 32//90
f 33//91 54//91 52//91 29//91
f 25//92 32//92 53//92 51//92
f 117//93 91//93 90//93
f 86//94 113//94 117//94 90//94
f 91//95 117//95 114//95 87//95
f 51//96 113//96 86//96 82//96
f 48//97 49//97 61//97 60//97
f 120//98 61//98 112//98 111//98
f 6//1 8//1 35//1 34//1
f 19//99 38//99 39//99 21//99
f 39//100 42//100 22//100 21//100
f 31//101 46//101 48//101 33//101
f 22//102 42//102 46//102 31//102
f 6//103 34//103 38//103 19//103
f 54//104 60//104 62//104 56//104
f 56//105 62//105 63//105 58//105
f 67//1 69//1 99//1 97//1
f 80//106 106//106 105//106 78//106
f 103//107 106//107 80//107 76//107
f 87//108 111//108 109//108 85//108
f 85//109 109//109 103//109 76//109
f 78//110 105//110 99//110 69//110
f 116//111 121//111 120//111 114//111
f 119//112 63//112 121//112 116//112
f 33//113 48//113 60//113 54//113
f 114//114 120//114 111//114 87//114
f 8//1 67//1 97//1 35//1
f 63//115 119//115 58//115
f 25//116 51//116 82//116
f 112//117 61//117 49//117
