# ProBuilder 5.0.3
# https://unity3d.com/unity/features/worldbuilding/probuilder
# 2/06/2022 1:29:22 PM

mtllib ./Hex_Glass.mtl
o Hex Glass

g Pipe
v -0.6 -3 1.039231
v -1.2 -3 0
v -0.6 3 1.039231
v -1.2 3 0
v -0.95 -3 0
v -0.475 -3 0.8227242
v -0.95 3 0
v -0.475 3 0.8227242
v 0.6000001 -3 1.03923
v 0.6000001 3 1.03923
v 0.4750001 -3 0.8227241
v 0.4750001 3 0.8227241
v 1.2 -3 -1.192093E-07
v 1.2 3 -1.192093E-07
v 0.95 -3 -5.960464E-08
v 0.95 3 -5.960464E-08
v 0.5999999 -3 -1.039231
v 0.5999999 3 -1.039231
v 0.4749999 -3 -0.8227242
v 0.4749999 3 -0.8227242
v -0.5999999 -3 -1.039231
v -0.5999999 3 -1.039231
v -0.4749999 -3 -0.8227242
v -0.4749999 3 -0.8227242

vt 0.6000001 -3
vt -0.6 -3
vt 0.6000001 3
vt -0.6 3
vt 0.4750001 -3
vt -0.4750001 -3
vt 0.4750001 3
vt -0.4750001 3
vt -0.475 -3
vt -0.475 3
vt 0.5999999 -3
vt -0.5999999 -3
vt 0.5999999 3
vt -0.5999999 3
vt 0.4749999 -3
vt 0.4749999 3
vt -1.2 0
vt -0.6 1.039231
vt -0.95 0
vt -0.475 0.8227242
vt 0.6 1.039231
vt 1.2 0
vt 0.475 0.8227242
vt 0.95 0
vt 0.6000001 1.03923
vt 0.4750001 0.8227241
vt -0.6000001 1.03923
vt -0.4750001 0.8227241
vt 0.5999999 -1.039231
vt 0.4749999 -0.8227242
vt -0.5999999 -1.039231
vt -0.4749999 -0.8227242

vn -0.8660254 0 0.5
vn 0.8660254 0 -0.5000001
vn 9.934107E-08 0 1
vn -1.254835E-07 0 -1
vn 0.8660254 0 0.4999999
vn -0.8660255 0 -0.4999999
vn -0.8660254 0 -0.5000001
vn 0.8660254 0 0.5000001
vn 0 -1 0
vn 0 1 0

usemtl NullGlass
f 3/3/1 4/4/1 2/2/1 1/1/1
f 7/7/2 8/8/2 6/6/2 5/5/2
f 10/3/3 3/4/3 1/2/3 9/1/3
f 8/7/4 12/8/4 11/6/4 6/5/4
f 14/3/5 10/4/5 9/2/5 13/1/5
f 12/7/6 16/10/6 15/9/6 11/5/6
f 18/3/2 14/4/2 13/2/2 17/1/2
f 16/7/1 20/8/1 19/6/1 15/5/1
f 22/13/4 18/14/4 17/12/4 21/11/4
f 20/16/3 24/10/3 23/9/3 19/15/3
f 4/3/7 22/4/7 21/2/7 2/1/7
f 24/7/8 7/8/8 5/6/8 23/5/8
f 5/19/9 6/20/9 1/18/9 2/17/9
f 8/23/10 7/24/10 4/22/10 3/21/10
f 6/20/9 11/26/9 9/25/9 1/18/9
f 12/28/10 8/23/10 3/21/10 10/27/10
f 11/26/9 15/24/9 13/22/9 9/25/9
f 16/19/10 12/28/10 10/27/10 14/17/10
f 15/24/9 19/30/9 17/29/9 13/22/9
f 20/32/10 16/19/10 14/17/10 18/31/10
f 19/30/9 23/32/9 21/31/9 17/29/9
f 24/30/10 20/32/10 18/31/10 22/29/10
f 23/32/9 5/19/9 2/17/9 21/31/9
f 7/24/10 24/30/10 22/29/10 4/22/10

