# ProBuilder 5.0.3
# https://unity3d.com/unity/features/worldbuilding/probuilder
# 2/06/2022 1:29:09 PM

mtllib ./Hex_Core.mtl
o Hex Core

g Cylinder
v -1.125 -2.498749 0
v -1.125 2.501252 0
v -0.5624999 -2.498749 0.9742787
v -0.5624999 2.501252 0.9742787
v 0.5625 -2.498749 0.9742786
v 0.5625 2.501252 0.9742786
v 1.125 -2.498749 -1.192093E-07
v 1.125 2.501252 -1.192093E-07
v 0.5624999 -2.498749 -0.9742786
v 0.5624999 2.501252 -0.9742786
v -0.5624999 -2.498749 -0.9742786
v -0.5624999 2.501252 -0.9742786
v -0.6576471 -3.63567 0
v 0 -3.63567 0
v -0.3288236 -3.63567 0.5695391
v -0.6775336 3.63567 0
v 0 3.63567 0
v -0.3387668 3.63567 0.5867615
v 0.3288236 -3.63567 0.5695391
v 0.3387671 3.63567 0.5867615
v 0.6576471 -3.63567 0
v 0.6775336 3.63567 0
v 0.3288236 -3.63567 -0.5695391
v 0.3387671 3.63567 -0.5867615
v -0.3288236 -3.63567 -0.5695391
v -0.3387668 3.63567 -0.5867615
v 0.6573591 2.251251 -1.13205
v 1.314719 2.251251 0
v 0.6573591 2.501352 -1.13205
v 1.314719 2.501352 0
v -0.6573594 2.251251 -1.13205
v -0.6573594 2.501352 -1.13205
v 0.6573591 2.251251 1.13205
v 0.6573591 2.501352 1.13205
v -0.6573594 2.251251 1.13205
v -0.6573594 2.501352 1.13205
v -1.314719 2.251251 0
v -1.314719 2.501352 0
v 1.314719 -2.248749 0
v 0.6573591 -2.248749 -1.13205
v 1.314719 -2.498849 0
v 0.6573591 -2.498849 -1.13205
v 0.6573591 -2.248749 1.13205
v 0.6573591 -2.498849 1.13205
v -0.6573594 -2.248749 -1.13205
v -0.6573594 -2.498849 -1.13205
v -1.314719 -2.248749 0
v -1.314719 -2.498849 0
v -0.6573594 -2.248749 1.13205
v -0.6573594 -2.498849 1.13205
v 0.5625 3.501552 0.9742785
v 1.125 3.501552 0
v 0.6573591 3.501552 1.13205
v 1.314719 3.501552 0
v -0.5625 3.501552 0.9742785
v -0.6573594 3.501552 1.13205
v -1.125 3.501552 0
v -1.314719 3.501552 0
v -0.5625 3.501552 -0.9742785
v -0.6573594 3.501552 -1.13205
v 0.5625 3.501552 -0.9742785
v 0.6573591 3.501552 -1.13205
v -0.5625 -3.499049 -0.9742785
v 0.5625 -3.499049 -0.9742785
v -0.6573594 -3.499049 -1.13205
v 0.6573591 -3.499049 -1.13205
v -1.125 -3.499049 0
v -1.314719 -3.499049 0
v -0.5625 -3.499048 0.9742785
v -0.6573594 -3.499049 1.13205
v 0.5625 -3.499048 0.9742785
v 0.6573591 -3.499049 1.13205
v 1.125 -3.499049 0
v 1.314719 -3.499049 0
v 0.6573591 -3.248949 1.13205
v 1.314719 -3.248949 0
v -0.6573594 -3.248949 1.13205
v 0.6573591 -3.248949 -1.13205
v -0.6573594 -3.248949 -1.13205
v -1.314719 -3.248949 0
v -0.6573594 3.251452 -1.13205
v 0.6573591 3.251452 -1.13205
v -1.314719 3.251452 0
v 1.314719 3.251452 0
v 0.6573591 3.251452 1.13205
v -0.6573594 3.251452 1.13205

vt -0.5625 -2.498749
vt -0.5625 2.501252
vt 0.5625001 -2.498749
vt 0.5625001 2.501252
vt -0.5625001 -2.498749
vt -0.5625001 2.501252
vt 0.5624999 -2.498749
vt 0.5624999 2.501252
vt -0.6576471 -3.043905E-06
vt 0 -3.043905E-06
vt -0.3288236 0.569536
vt 0.6775336 0
vt 0.3387668 0.5867615
vt 0.3288236 0.569536
vt -0.3387671 0.5867615
vt 0.6576471 -3.043905E-06
vt -0.6775336 0
vt 0.3288236 -0.5695391
vt -0.3387671 -0.5867615
vt -0.3288236 -0.5695391
vt 0.3387668 -0.5867615
vt 0.6488702 2.251251
vt -0.6601974 2.251251
vt 0.6488702 2.501352
vt -0.6601974 2.501352
vt 0.6573594 2.251251
vt -0.6573591 2.251251
vt 0.6573594 2.501352
vt -0.6573591 2.501352
vt 0.6601974 2.251251
vt -0.6488702 2.251251
vt 0.6601974 2.501352
vt -0.6488702 2.501352
vt -0.6601974 -2.248749
vt 0.6488702 -2.248749
vt -0.6601974 -2.498849
vt 0.6488702 -2.498849
vt -0.6488702 -2.248749
vt 0.6601974 -2.248749
vt -0.6488702 -2.498849
vt 0.6601974 -2.498849
vt -0.6573591 -2.248749
vt 0.6573594 -2.248749
vt -0.6573591 -2.498849
vt 0.6573594 -2.498849
vt -0.5624999 1.595288
vt 0.5625001 1.595288
vt -0.657359 1.299667
vt 0.6573595 1.299667
vt -0.5625 0.9742785
vt -1.125 0
vt -0.6573591 1.13205
vt -1.314719 0
vt 0.5625 0.9742785
vt 0.6573594 1.13205
vt -0.5625002 1.575174
vt 0.5625 1.575174
vt -0.6517041 1.277797
vt 0.6573594 1.276029
vt 1.125 0
vt 1.314719 0
vt -0.5625001 1.555164
vt 0.5625001 1.555164
vt -0.6573594 1.256006
vt 0.651704 1.2578
vt 0.5625 -0.9742785
vt 0.6573594 -1.13205
vt 0.5624999 1.595288
vt -0.5625 -0.9742785
vt -0.6573591 -1.13205
vt -0.5624999 1.575174
vt 0.5625001 1.575174
vt 0.5625001 -1.573068
vt -0.5625001 -1.573068
vt 0.651704 -1.275691
vt -0.6573594 -1.273923
vt 0.5625 -1.553071
vt -0.5625001 -1.553071
vt 0.6573594 -1.253914
vt -0.651704 -1.255707
vt -0.5625052 0.9742806
vt 0.5625001 -1.593171
vt -0.5624999 -1.593171
vt 0.6573595 -1.29755
vt -0.657359 -1.29755
vt 0.5625001 -1.553071
vt -0.5624999 -1.553071
vt 0.5624999 -1.59317
vt -0.6488702 -3.248949
vt 0.6601974 -3.248949
vt -0.6573594 -3.248949
vt 0.6573591 -3.248949
vt -0.6601974 -3.248949
vt 0.6488702 -3.248949
vt -0.6488702 -3.499049
vt 0.6601974 -3.499049
vt -0.6573594 -3.499049
vt 0.6573591 -3.499049
vt -0.6601974 -3.499049
vt 0.6488702 -3.499049
vt 0.6573594 3.251452
vt -0.6573591 3.251452
vt 0.6601972 3.251452
vt -0.6488702 3.251452
vt 0.6488702 3.251452
vt -0.6601974 3.251452
vt 0.6573594 3.501552
vt -0.6573591 3.501552
vt 0.6601972 3.501552
vt -0.6488702 3.501552
vt 0.6488702 3.501552
vt -0.6601974 3.501552
vt 0.5625 0.2245278
vt -0.5625 0.2245278
vt 0.3387668 0.6345974
vt -0.3387671 0.6345974
vt 0.07230945 0.6013235
vt -0.4665082 -0.3862495
vt -0.3948242 0.6013235
vt -0.7193282 0.006555383
vt 0.466509 -0.386249
vt -0.07230864 0.6013239
vt 0.7193288 0.006555798
vt 0.394825 0.6013239
vt -0.07230945 -0.6013235
vt 0.4665082 0.3862495
vt 0.3948242 -0.6013235
vt 0.719328 -0.006555394
vt -0.5625 -0.2245278
vt 0.5625 -0.2245278
vt -0.3387671 -0.6345974
vt 0.3387668 -0.6345974
vt -0.4665084 0.3862493
vt 0.07230924 -0.6013237
vt -0.7193285 -0.006555553
vt -0.3948244 -0.6013237
vt 0.5625 0.1959762
vt -0.5625 0.1959762
vt 0.3288236 0.6231523
vt -0.3288236 0.6231523
vt 0.09801906 0.5875416
vt -0.4418845 -0.3994381
vt -0.3888938 0.5875416
vt -0.7045081 0.0105777
vt 0.4418845 -0.3994381
vt -0.09801906 0.5875416
vt 0.7045081 0.0105777
vt 0.3888938 0.5875416
vt -0.09801917 -0.5875424
vt 0.4418843 0.3994373
vt 0.3888937 -0.5875424
vt 0.7045078 -0.01057844
vt -0.5625 -0.1959743
vt 0.5625 -0.1959743
vt -0.3288236 -0.6231502
vt 0.3288236 -0.6231502
vt -0.441882 0.3994386
vt 0.09802156 -0.5875411
vt -0.7045054 -0.0105772
vt -0.3888913 -0.5875412

vn -0.8660254 0 0.5
vn 1.059638E-07 0 1
vn 0.8660254 0 0.5
vn 0.8660254 0 -0.5000001
vn 0 0 -1
vn -0.8660254 0 -0.5000001
vn 0 -1 8.372335E-07
vn 0 1 0
vn 0.8647755 0 -0.5021587
vn 0.8647755 0 0.5021587
vn -0.8647756 0 0.5021585
vn -0.8647756 0 -0.5021585
vn -8.961127E-08 -0.5336934 -0.8456781
vn 0.7280555 -0.5415227 -0.420343
vn 0.7255237 -0.5450913 -0.4200853
vn 0.7229919 -0.5486599 -0.4198275
vn 0.7237217 -0.5492137 0.417841
vn 0.7252163 -0.545632 0.419914
vn 0.7267108 -0.5420502 0.421987
vn 0 -0.5336932 0.8456781
vn -0.7280557 -0.5415225 0.4203433
vn -0.7255238 -0.5450911 0.4200854
vn -0.7229919 -0.5486597 0.4198276
vn -0.7237217 -0.5492139 -0.4178409
vn -0.7252164 -0.5456318 -0.4199141
vn -0.7267111 -0.5420496 -0.4219873
vn 0.7280552 0.5415233 0.4203429
vn 0.7255235 0.5450917 0.4200851
vn 0.7229917 0.5486602 0.4198273
vn 0.7237216 0.5492141 -0.4178408
vn 0.7252162 0.5456322 -0.4199139
vn 0.7267107 0.5420504 -0.4219869
vn -8.961127E-08 0.5336934 -0.845678
vn -0.7280556 0.5415226 -0.420343
vn -0.7255236 0.5450915 -0.4200853
vn -0.7229916 0.5486603 -0.4198274
vn -0.7237216 0.5492139 0.417841
vn -0.7252162 0.545632 0.419914
vn -0.7267108 0.5420501 0.4219871
vn 0 0.5336936 0.845678
vn 0 0.945003 -0.3270618
vn -0.2832436 0.945003 -0.1635308
vn 0.2832439 0.945003 -0.1635309
vn 0.2832436 0.945003 0.1635308
vn 0 0.945003 0.3270618
vn -0.2832437 0.945003 0.1635308
vn 0 -0.9474767 -0.3198248
vn 0.2769763 -0.9474767 -0.1599124
vn -0.2769763 -0.9474767 -0.1599124
vn -0.2769763 -0.9474767 0.1599126
vn 0 -0.9474769 0.3198242
vn 0.2769757 -0.9474769 0.1599122

usemtl TestMat1
f 3/3/1 4/4/1 2/2/1 1/1/1
f 5/7/2 6/8/2 4/6/2 3/5/2
f 7/3/3 8/4/3 6/2/3 5/1/3
f 9/3/4 10/4/4 8/2/4 7/1/4
f 11/7/5 12/8/5 10/2/5 9/1/5
f 1/3/6 2/4/6 12/6/6 11/5/6

usemtl TestMat2
f 29/24/9 30/25/9 28/23/9 27/22/9
f 32/28/5 29/29/5 27/27/5 31/26/5
f 30/32/10 34/33/10 33/31/10 28/30/10
f 34/28/2 36/29/2 35/27/2 33/26/2
f 36/24/11 38/25/11 37/23/11 35/22/11
f 38/32/12 32/33/12 31/31/12 37/30/12
f 41/36/9 42/37/9 40/35/9 39/34/9
f 44/40/10 41/41/10 39/39/10 43/38/10
f 42/44/5 46/45/5 45/43/5 40/42/5
f 46/40/12 48/41/12 47/39/12 45/38/12
f 48/36/11 50/37/11 49/35/11 47/34/11
f 50/44/2 44/45/2 43/43/2 49/42/2
f 33/48/13 35/49/13 4/47/13 6/46/13
f 53/52/8 54/53/8 52/51/8 51/50/8
f 56/55/8 53/52/8 51/50/8 55/54/8
f 35/58/15 37/59/16 2/57/15 4/56/14
f 58/61/8 56/55/8 55/54/8 57/60/8
f 37/64/18 31/65/19 12/63/18 2/62/17
f 60/67/8 58/61/8 57/60/8 59/66/8
f 31/48/20 27/49/20 10/68/20 12/46/20
f 62/70/8 60/67/8 59/66/8 61/69/8
f 27/58/22 28/59/23 8/72/22 10/71/21
f 54/53/8 62/70/8 61/69/8 52/51/8
f 28/64/25 33/65/26 6/63/25 8/62/24
f 45/75/28 47/76/29 1/74/28 11/73/27
f 65/70/7 66/67/7 64/66/7 63/69/7
f 68/53/7 65/70/7 63/69/7 67/51/7
f 47/79/31 49/80/32 3/78/31 1/77/30
f 70/52/7 68/53/7 67/51/7 69/81/7
f 49/84/33 43/85/33 5/83/33 3/82/33
f 72/55/7 70/52/7 69/50/7 71/54/7
f 43/75/35 39/76/36 7/74/35 5/73/34
f 74/61/7 72/55/7 71/54/7 73/60/7
f 39/79/38 40/80/39 9/87/38 7/86/37
f 66/67/7 74/61/7 73/60/7 64/66/7
f 40/84/40 45/85/40 11/83/40 9/88/40
f 72/95/10 74/96/10 76/90/10 75/89/10
f 70/97/2 72/98/2 75/92/2 77/91/2
f 74/99/9 66/100/9 78/94/9 76/93/9
f 66/97/5 65/98/5 79/92/5 78/91/5
f 65/95/12 68/96/12 80/90/12 79/89/12
f 68/99/11 70/100/11 77/94/11 80/93/11
f 60/107/5 62/108/5 82/102/5 81/101/5
f 58/109/12 60/110/12 81/104/12 83/103/12
f 62/111/9 54/112/9 84/106/9 82/105/9
f 54/109/10 53/110/10 85/104/10 84/103/10
f 53/107/2 56/108/2 86/102/2 85/101/2
f 56/111/11 58/112/11 83/106/11 86/105/11

usemtl TestMat3
f 13/9/7 14/10/7 15/11/7
f 15/11/7 14/10/7 19/14/7
f 19/14/7 14/10/7 21/16/7
f 21/16/7 14/10/7 23/18/7
f 23/18/7 14/10/7 25/20/7
f 25/20/7 14/10/7 13/9/7
f 18/13/8 17/10/8 16/12/8
f 20/15/8 17/10/8 18/13/8
f 22/17/8 17/10/8 20/15/8
f 24/19/8 17/10/8 22/17/8
f 26/21/8 17/10/8 24/19/8
f 16/12/8 17/10/8 26/21/8
f 76/90/10 41/41/10 44/40/10
f 44/40/10 75/89/10 76/90/10
f 75/92/2 44/45/2 50/44/2
f 50/44/2 77/91/2 75/92/2
f 78/94/9 42/37/9 41/36/9
f 41/36/9 76/93/9 78/94/9
f 79/92/5 46/45/5 42/44/5
f 42/44/5 78/91/5 79/92/5
f 80/90/12 48/41/12 46/40/12
f 46/40/12 79/89/12 80/90/12
f 77/94/11 50/37/11 48/36/11
f 48/36/11 80/93/11 77/94/11
f 82/102/5 29/29/5 32/28/5
f 32/28/5 81/101/5 82/102/5
f 81/104/12 32/33/12 38/32/12
f 38/32/12 83/103/12 81/104/12
f 84/106/9 30/25/9 29/24/9
f 29/24/9 82/105/9 84/106/9
f 85/104/10 34/33/10 30/32/10
f 30/32/10 84/103/10 85/104/10
f 86/102/2 36/29/2 34/28/2
f 34/28/2 85/101/2 86/102/2
f 83/106/11 38/25/11 36/24/11
f 36/24/11 86/105/11 83/106/11
f 24/116/41 61/114/41 59/113/41
f 59/113/41 26/115/41 24/116/41
f 26/120/42 59/118/42 57/117/42
f 57/117/42 16/119/42 26/120/42
f 22/124/43 52/122/43 61/121/43
f 61/121/43 24/123/43 22/124/43
f 20/128/44 51/126/44 52/125/44
f 52/125/44 22/127/44 20/128/44
f 18/132/45 55/130/45 51/129/45
f 51/129/45 20/131/45 18/132/45
f 16/136/46 57/134/46 55/133/46
f 55/133/46 18/135/46 16/136/46
f 25/140/47 63/138/47 64/137/47
f 64/137/47 23/139/47 25/140/47
f 23/144/48 64/142/48 73/141/48
f 73/141/48 21/143/48 23/144/48
f 13/148/49 67/146/49 63/145/49
f 63/145/49 25/147/49 13/148/49
f 15/152/50 69/150/50 67/149/50
f 67/149/50 13/151/50 15/152/50
f 19/156/51 71/154/51 69/153/51
f 69/153/51 15/155/51 19/156/51
f 21/160/52 73/158/52 71/157/52
f 71/157/52 19/159/52 21/160/52

