# ProBuilder 5.0.3
# https://unity3d.com/unity/features/worldbuilding/probuilder
# 2/06/2022 2:20:47 PM

mtllib ./Wireframe.mtl
o Wireframe

g Wireframe
v 2.637237 -1.297906 2.498127
v 2.387237 -1.297906 2.498127
v 2.387237 -1.047906 2.498127
v 2.637237 -1.047906 2.498127
v 0.6372366 -1.297906 2.498127
v 0.6372366 -1.047906 2.498127
v 2.387237 0.7020942 2.498127
v 2.637237 0.7020941 2.498127
v -1.112763 -1.297906 2.498127
v -1.112763 -1.047906 2.498127
v -1.362763 -1.297906 2.498127
v -1.362763 -1.047906 2.498127
v -1.362763 0.7020941 2.498127
v -1.112763 0.7020942 2.498127
v -1.362763 2.452094 2.498127
v -1.112763 2.452094 2.498127
v -1.362763 2.702094 2.498127
v -1.112763 2.702094 2.498127
v 0.6372366 2.702094 2.498127
v 0.6372366 2.452094 2.498127
v 2.387237 2.452094 2.498127
v 2.637237 2.452094 2.498127
v 2.387237 2.702094 2.498127
v 2.637237 2.702094 2.498127
v -1.362763 -1.297906 2.248127
v -1.362763 -1.047906 2.248127
v -1.362763 -1.297906 0.498127
v -1.362763 -1.047906 0.498127
v -1.362763 0.7020942 2.248127
v -1.362763 -1.297906 -1.251873
v -1.362763 -1.047906 -1.251873
v -1.362763 -1.297906 -1.501873
v -1.362763 -1.047906 -1.501873
v -1.362763 0.7020941 -1.501873
v -1.362763 0.7020942 -1.251873
v -1.362763 2.452094 -1.501873
v -1.362763 2.452094 -1.251873
v -1.362763 2.702094 -1.501873
v -1.362763 2.702094 -1.251873
v -1.362763 2.702094 0.498127
v -1.362763 2.452094 0.498127
v -1.362763 2.452094 2.248127
v -1.362763 2.702094 2.248127
v 0.6372366 -1.297906 -1.501873
v 0.6372366 -1.047906 -1.501873
v -1.112763 -1.047906 -1.501873
v -1.112763 -1.297906 -1.501873
v -1.112763 0.7020942 -1.501873
v 2.637237 -1.297906 -1.501873
v 2.637237 -1.047906 -1.501873
v 2.387237 -1.047906 -1.501873
v 2.387237 -1.297906 -1.501873
v 2.637237 0.7020941 -1.501873
v 2.387237 0.7020942 -1.501873
v 2.637237 2.452094 -1.501873
v 2.387237 2.452094 -1.501873
v 2.637237 2.702094 -1.501873
v 2.387237 2.702094 -1.501873
v 0.6372366 2.702094 -1.501873
v 0.6372366 2.452094 -1.501873
v -1.112763 2.702094 -1.501873
v -1.112763 2.452094 -1.501873
v 2.637237 -1.297906 0.498127
v 2.637237 -1.047906 0.498127
v 2.637237 -1.047906 -1.251873
v 2.637237 -1.297906 -1.251873
v 2.637237 0.7020942 -1.251873
v 2.637237 -1.047906 2.248127
v 2.637237 -1.297906 2.248127
v 2.637237 0.7020942 2.248127
v 2.637237 2.452094 2.248127
v 2.637237 2.702094 2.248127
v 2.637237 2.702094 0.498127
v 2.637237 2.452094 0.498127
v 2.637237 2.702094 -1.251873
v 2.637237 2.452094 -1.251873
v 2.387237 2.702094 0.498127
v 2.387237 2.702094 2.248127
v 0.6372366 2.702094 2.248127
v -1.112763 2.702094 0.498127
v -1.112763 2.702094 2.248127
v -1.112763 2.702094 -1.251873
v 0.6372366 2.702094 -1.251873
v 2.387237 2.702094 -1.251873
v 0.6372366 -1.297906 -1.251873
v 2.387237 -1.297906 -1.251873
v 2.387237 -1.297906 0.498127
v -1.112763 -1.297906 -1.251873
v -1.112763 -1.297906 0.498127
v -1.112763 -1.297906 2.248127
v 0.6372366 -1.297906 2.248127
v 2.387237 -1.297906 2.248127
v -1.112823 -1.047906 -1.351873
v 0.6372366 -1.047906 -1.351973
v 0.6372366 2.452154 -1.351873
v -1.112823 2.452094 -1.351873
v -1.114862 0.7020942 -1.351863
v 2.387297 0.7020942 -1.351873
v 2.387237 2.452154 -1.351873
v 2.387237 -1.047906 -1.351973
v 2.487236 -1.047906 -1.251933
v 2.487337 -1.047906 0.498127
v 2.487337 2.452094 0.498127
v 2.487236 2.452154 -1.251873
v 2.487337 0.7020942 -1.251873
v 2.487337 0.7020942 2.248127
v 2.487236 2.452154 2.248127
v 2.487337 -1.047906 2.248127
v -1.212763 -1.047906 2.248187
v -1.212864 -1.047906 0.498127
v -1.216262 0.7020942 -1.251873
v -1.212864 2.452094 -1.251873
v -1.212864 2.452094 2.248127
v -1.212763 0.7020942 2.248187
v -1.212763 2.452154 0.498127
v -1.212864 -1.047906 -1.251873
v 2.387297 -1.047906 2.348127
v 0.6372366 -1.047906 2.348227
v -1.112763 0.7020942 2.348227
v -1.112823 2.452094 2.348127
v 2.387237 2.452154 2.348127
v 2.387297 0.7020942 2.348127
v 0.6372366 2.452154 2.348127
v -1.112763 -1.047906 2.348227
v -1.112823 2.552094 -1.251873
v 0.6372366 2.552194 -1.251873
v 2.387297 2.552094 0.498127
v 2.387237 2.552194 2.248127
v -1.112763 2.552194 0.498127
v 0.6372366 2.552194 2.248127
v -1.112823 2.552094 2.248127
v 2.387237 2.552194 -1.251873
v 2.387237 -1.147906 -1.251933
v 0.6372366 -1.147906 -1.251933
v 0.6372366 -1.147906 2.248187
v 2.387297 -1.147906 2.248127
v 2.387297 -1.147906 0.498127
v -1.112823 -1.147906 0.498127
v -1.112763 -1.147906 2.248187
v -1.112823 -1.147906 -1.251873

vt 2.637237 -1.297906
vt 2.387237 -1.297906
vt 2.387237 -1.047906
vt 2.637237 -1.047906
vt 0.6372366 -1.297906
vt 0.6372366 -1.047906
vt 2.387237 0.7020942
vt 2.637237 0.7020941
vt -1.112763 -1.297906
vt -1.112763 -1.047906
vt -1.362763 -1.297906
vt -1.362763 -1.047906
vt -1.362763 0.7020941
vt -1.112763 0.7020942
vt -1.362763 2.452094
vt -1.112763 2.452094
vt -1.362763 2.702094
vt -1.112763 2.702094
vt 0.6372366 2.702094
vt 0.6372366 2.452094
vt 2.387237 2.452094
vt 2.637237 2.452094
vt 2.387237 2.702094
vt 2.637237 2.702094
vt 2.498127 -1.297906
vt 2.248127 -1.297906
vt 2.248127 -1.047906
vt 2.498127 -1.047906
vt 0.498127 -1.297906
vt 0.498127 -1.047906
vt 2.248127 0.7020942
vt 2.498127 0.7020941
vt -1.251873 -1.297906
vt -1.251873 -1.047906
vt -1.501873 -1.297906
vt -1.501873 -1.047906
vt -1.501873 0.7020941
vt -1.251873 0.7020942
vt -1.501873 2.452094
vt -1.251873 2.452094
vt -1.501873 2.702094
vt -1.251873 2.702094
vt 0.498127 2.702094
vt 0.498127 2.452094
vt 2.248127 2.452094
vt 2.498127 2.452094
vt 2.248127 2.702094
vt 2.498127 2.702094
vt -0.6372366 -1.297906
vt -0.6372366 -1.047906
vt 1.112763 -1.047906
vt 1.112763 -1.297906
vt 1.112763 0.7020942
vt 1.362763 0.7020941
vt 1.362763 -1.047906
vt 1.362763 -1.297906
vt -2.637237 -1.297906
vt -2.637237 -1.047906
vt -2.387237 -1.047906
vt -2.387237 -1.297906
vt -2.637237 0.7020941
vt -2.387237 0.7020942
vt -2.637237 2.452094
vt -2.387237 2.452094
vt -2.637237 2.702094
vt -2.387237 2.702094
vt -0.6372366 2.702094
vt -0.6372366 2.452094
vt 1.112763 2.702094
vt 1.112763 2.452094
vt 1.362763 2.702094
vt 1.362763 2.452094
vt -0.498127 -1.297906
vt -0.498127 -1.047906
vt 1.251873 -1.047906
vt 1.251873 -1.297906
vt 1.251873 0.7020942
vt 1.501873 0.7020941
vt 1.501873 -1.047906
vt 1.501873 -1.297906
vt -2.498127 -1.297906
vt -2.498127 -1.047906
vt -2.248127 -1.047906
vt -2.248127 -1.297906
vt -2.498127 0.7020941
vt -2.248127 0.7020942
vt -2.498127 2.452094
vt -2.248127 2.452094
vt -2.498127 2.702094
vt -2.248127 2.702094
vt -0.498127 2.702094
vt -0.498127 2.452094
vt 1.251873 2.702094
vt 1.251873 2.452094
vt 1.501873 2.702094
vt 1.501873 2.452094
vt -2.387237 0.498127
vt -2.637237 0.498127
vt -2.637237 2.248127
vt -2.387237 2.248127
vt -2.637237 2.498127
vt -2.387237 2.498127
vt -0.6372366 2.498127
vt -0.6372366 2.248127
vt 1.362763 0.498127
vt 1.112763 0.498127
vt 1.112763 2.248127
vt 1.362763 2.248127
vt 1.112763 2.498127
vt 1.362763 2.498127
vt 1.362763 -1.501873
vt 1.112763 -1.501873
vt 1.112763 -1.251873
vt 1.362763 -1.251873
vt -0.6372366 -1.501873
vt -0.6372366 -1.251873
vt -2.387237 -1.501873
vt -2.387237 -1.251873
vt -2.637237 -1.501873
vt -2.637237 -1.251873
vt 0.6372366 -1.501873
vt 0.6372366 -1.251873
vt 2.387237 -1.251873
vt 2.387237 -1.501873
vt 2.387237 0.498127
vt 2.637237 0.498127
vt 2.637237 -1.251873
vt 2.637237 -1.501873
vt -1.362763 -1.501873
vt -1.362763 -1.251873
vt -1.112763 -1.251873
vt -1.112763 -1.501873
vt -1.362763 0.498127
vt -1.112763 0.498127
vt -1.362763 2.248127
vt -1.112763 2.248127
vt -1.362763 2.498127
vt -1.112763 2.498127
vt 0.6372366 2.498127
vt 0.6372366 2.248127
vt 2.387237 2.498127
vt 2.387237 2.248127
vt 2.637237 2.498127
vt 2.637237 2.248127
vt 1.112823 -1.351873
vt -0.6372366 -1.351973
vt 0.6372366 -1.500895
vt -1.112763 -1.500895
vt 0.6372366 -1.350895
vt -1.112823 -1.350896
vt 1.501427 2.452094
vt 1.501427 0.7020942
vt 1.351427 2.452094
vt 1.351426 0.7020942
vt 1.486157 0.7020942
vt 1.486157 -1.047906
vt 1.336133 0.7020942
vt 1.336181 -1.047906
vt -1.500917 0.7020942
vt -1.500917 2.452094
vt -1.350917 0.7020942
vt -1.350917 2.452154
vt 2.387237 -1.500895
vt 2.387237 -1.350895
vt -1.351973 -1.047906
vt -1.351873 0.7020942
vt -2.387237 -1.351973
vt -2.487236 -1.251933
vt -2.487337 0.498127
vt 2.487337 0.498127
vt 2.487236 -1.251873
vt 2.487236 2.452154
vt 2.487337 0.7020942
vt 2.487236 -1.047906
vt -2.487337 0.7020942
vt -2.487236 2.452154
vt 2.636259 2.248127
vt 2.636259 0.498127
vt 2.486259 2.248127
vt 2.486359 0.498127
vt -2.487337 -1.047906
vt -2.487337 2.248127
vt 1.212763 2.248187
vt 1.212864 0.498127
vt -1.216262 0.7020942
vt -1.212864 2.452094
vt 1.212864 2.452094
vt 1.212763 0.7020942
vt -1.212864 -1.251873
vt -1.212763 0.498127
vt 1.212864 -1.251873
vt -1.212864 -1.047906
vt -1.361786 0.498127
vt -1.361786 2.248127
vt -1.211786 0.498127
vt -1.211886 2.248127
vt 1.361863 0.7020942
vt 1.361863 -1.047906
vt 1.211863 0.7020942
vt 1.211863 -1.047906
vt -2.387297 2.348127
vt -0.6372366 2.348227
vt -2.348227 0.7020942
vt -2.348127 2.452094
vt 2.348127 2.452154
vt 2.348127 0.7020942
vt -1.112823 2.348127
vt 0.6372366 2.348127
vt 1.112763 2.348227
vt -2.348227 -1.047906
vt 0.6372366 2.497149
vt 2.387237 2.497149
vt 0.6372366 2.347149
vt 2.387237 2.347149
vt 2.497171 0.7020942
vt 2.497171 -1.047906
vt 2.347171 0.7020942
vt 2.347171 -1.047906
vt -1.112823 2.552094
vt 0.6372366 2.552194
vt 0.498127 2.701138
vt 2.248127 2.701138
vt 0.498127 2.551138
vt 2.248127 2.551237
vt -0.498127 2.552194
vt 1.251873 2.552094
vt -0.6372366 2.552194
vt 1.112823 2.552094
vt 2.387237 2.552194
vt -1.251873 2.552194
vt 0.498127 2.552094
vt -2.248127 2.701648
vt -0.498127 2.701648
vt -2.248127 2.551648
vt -0.498127 2.551748
vt -2.387237 2.552194
vt 2.387237 -1.297405
vt 0.6372366 -1.297405
vt 2.387237 -1.147405
vt 0.6372366 -1.147405
vt -0.6372366 -1.297005
vt -2.387237 -1.297005
vt -0.6372366 -1.147005
vt -2.387297 -1.147005
vt 2.248127 -1.29695
vt 0.498127 -1.29695
vt 2.248127 -1.14695
vt 0.498127 -1.14695
vt -1.251873 -1.29695
vt -1.251933 -1.14695
vt -0.498127 -1.29746
vt -2.248127 -1.29746
vt -0.498127 -1.14746
vt -2.248187 -1.14746
vt 1.112763 -1.297005
vt 1.112763 -1.147005
vt 1.251873 -1.29746
vt 1.251873 -1.14746
vt -1.112763 -1.297405
vt -1.112823 -1.147405
vt -0.6373169 0.07424915
vt 1.112743 0.07416453
vt -0.6373134 0.2156985
vt 1.112747 0.2155858
vt -2.387237 0.07423375
vt -2.387237 0.2156831
vt 0.02561963 0.4980702
vt 0.0255065 2.24807
vt -0.1158299 0.4980702
vt -0.1159429 2.24807
vt -1.251816 -0.02413242
vt 0.4981843 -0.02421703
vt -1.251818 0.117317
vt 0.498182 0.1172325
vt 0.6372366 0.7785498
vt 2.387237 0.7785498
vt 0.6372366 0.9199992
vt 2.387237 0.9199992
vt -1.112777 0.7779452
vt 0.6372828 0.7780299
vt -1.112781 0.9193665
vt 0.6372794 0.9194793
vt -0.4980991 0.8768875
vt 1.251901 0.8768029
vt -0.4981014 1.018337
vt 1.251899 1.018252
vt 0.8757479 2.248169
vt 0.875861 0.4981692
vt 1.017197 2.248169
vt 1.017311 0.4981692
vt -0.7326437 0.7021338
vt -0.7325304 2.452134
vt -0.8740934 0.7021338
vt -0.87398 2.452134
vt -0.7326435 -1.047906
vt -0.8740932 -1.047906
vt 1.112763 0.9199453
vt -0.6372366 0.9199453
vt 1.112763 0.7784957
vt -0.6372366 0.7784957
vt -2.387237 0.9197779
vt -2.387231 0.7783566
vt -0.169076 2.452018
vt -0.1691468 0.7019587
vt -0.02765474 2.452018
vt -0.02769722 0.7019587
vt -0.1698173 0.7020942
vt -0.1698173 -1.047906
vt -0.02836772 0.7020942
vt -0.02836772 -1.047906
vt -1.01833 2.248127
vt -1.01833 0.498127
vt -0.8768806 2.248127
vt -0.8768806 0.498127
vt -1.01826 -1.251832
vt -0.8768383 -1.251832
vt 0.732111 2.45209
vt 0.7321535 0.70203
vt 0.8735323 2.45209
vt 0.8736031 0.70203
vt 0.7326828 0.7020515
vt 0.7325696 -1.047948
vt 0.8741325 0.7020515
vt 0.8740193 -1.047948
vt -2.387237 -0.2153477
vt -0.6372366 -0.2153477
vt -2.387237 -0.07389802
vt -0.6372366 -0.07389802
vt 1.112764 -0.2152321
vt 1.112758 -0.07381067
vt 0.1553793 0.700673
vt 0.156838 2.450673
vt 0.01297204 0.700673
vt 0.0153915 2.450674
vt 0.1686846 -1.046477
vt 0.1672356 0.7035238
vt 0.02723486 -1.046477
vt 0.02483167 0.7035246
vt 0.1169628 -1.251873
vt 0.1169628 0.498127
vt -0.02448693 -1.251873
vt -0.02448693 0.498127
vt 0.116892 2.248122
vt -0.02452942 2.248122
vt -0.8730001 0.5887752
vt -0.8023037 0.7112578
vt -0.7315505 0.5887752
vt -0.02765474 0.06974995
vt -0.09836535 0.1922568
vt -0.169076 0.06974995
vt 0.8735325 0.4763597
vt 0.8028219 0.5988666
vt 0.7321112 0.4763597
vt 0.1686846 0.9956293
vt 0.09798811 1.118112
vt 0.02723494 0.9956293
vt 0.1165719 0.9132126
vt 0.04586125 1.03572
vt -0.02484944 0.9132126
vt -0.02836757 1.077927
vt -0.09906403 0.9554443
vt -0.1698171 1.077927
vt -1.017759 0.4204948
vt -0.8763377 0.4204948
vt -0.9470484 0.2979876
vt 0.1686846 0.1508076
vt 0.09798805 0.02832489
vt 0.02723487 0.1508076

vn 0 0 1
vn -1 0 0
vn 0 0 -1
vn 1 0 0
vn 0 1 0
vn 0 -1 0
vn 0 -0.9999999 0.0003989538
vn 0.9999999 0 0.0004005433
vn 0.9999507 -0.0005824624 0.007195918
vn 0.9999015 -0.001164925 0.01399129
vn 0.9999021 0 0.0139913
vn 0.9999506 0.0005825572 0.007195923
vn 0.9999992 0.001165114 0.000400543
vn -0.9999999 0 0.0004005433
vn -0.0003997482 -3.424128E-05 0.9999999
vn 0.0004005433 -3.430936E-05 -0.9999999
vn 2.417461E-05 -0.706966 -0.7072475
vn 3.222076E-05 -0.7070364 -0.7071772
vn -0.7069652 -0.7072484 -1.626778E-05
vn -0.7071064 -0.7071072 -1.44455E-07
vn -0.7072476 -0.706966 1.597887E-05
vn 0 -0.7069665 0.7072471
vn 2.417944E-05 -0.7071072 0.7071064
vn 0.7072471 -0.7069665 -1.629355E-05
vn 0.7071059 -0.7071077 -1.444359E-07
vn 0.7069648 -0.7072488 1.600468E-05
vn 0.707248 1.619732E-05 -0.7069656
vn 0.7071064 -3.819878E-11 -0.7071072
vn 0.7069648 -1.619739E-05 -0.7072488
vn 0 0.7072479 -0.7069656
vn -3.236364E-05 0.7071772 -0.7070364
vn -0.7071068 -4.04596E-05 -0.7071068
vn -0.7069652 -2.42709E-05 -0.7072484
vn -0.7069656 0.7072479 0
vn -0.7070364 0.7071772 3.236364E-05
vn -0.7071072 -2.427577E-05 0.7071064
vn -0.7069656 -4.045152E-05 0.7072479
vn -0.7072488 1.624555E-05 0.7069648
vn 0 0.7072483 0.7069652
vn 3.231546E-05 0.7071775 0.707036
vn 0.7021428 -0.0008141017 0.7120357
vn 0.7045537 -0.001093401 0.7096417
vn 0.7069646 -0.0013727 0.7072477
vn 0.706965 0.0008197468 0.7072482
vn 0.7045537 0.001091542 0.7096417
vn 0.7021424 0.001363336 0.7120352
vn 0.7069652 0.7072483 0
vn 0.707036 0.7071775 -3.236362E-05
vn 0.5771958 -0.5774276 -0.5774276
vn -0.5774269 -0.5771971 -0.5774269
vn -0.5774271 -0.5771973 0.5774264
vn 0.5771959 -0.5774278 0.5774271
vn 0.5774271 0.5774271 -0.5771966
vn -0.5771964 0.5774269 -0.5774276
vn -0.5774278 0.5774271 0.5771959
vn 0.5771961 0.5774273 0.5774273

usemtl Lit
f 113/347/49 131/346/49 120/345/49
f 121/348/50 128/349/50 107/350/50
f 104/351/51 132/352/51 99/353/51
f 96/354/52 125/355/52 112/356/52
f 109/357/53 124/358/53 139/359/53
f 108/362/54 136/361/54 117/360/54
f 100/365/55 133/364/55 101/363/55
f 116/368/56 140/367/56 93/366/56
f 3/3/1 2/2/1 1/1/1
f 1/1/1 4/4/1 3/3/1
f 5/5/1 2/2/1 3/3/1
f 3/3/1 6/6/1 5/5/1
f 7/7/1 3/3/1 4/4/1
f 4/4/1 8/8/1 7/7/1
f 10/10/1 9/9/1 5/5/1
f 5/5/1 6/6/1 10/10/1
f 11/11/1 9/9/1 10/10/1
f 10/10/1 12/12/1 11/11/1
f 13/13/1 12/12/1 10/10/1
f 10/10/1 14/14/1 13/13/1
f 15/15/1 13/13/1 14/14/1
f 14/14/1 16/16/1 15/15/1
f 17/17/1 15/15/1 16/16/1
f 16/16/1 18/18/1 17/17/1
f 18/18/1 16/16/1 20/20/1
f 20/20/1 19/19/1 18/18/1
f 21/21/1 7/7/1 8/8/1
f 8/8/1 22/22/1 21/21/1
f 19/19/1 20/20/1 21/21/1
f 21/21/1 23/23/1 19/19/1
f 23/23/1 21/21/1 22/22/1
f 22/22/1 24/24/1 23/23/1
f 26/27/2 25/26/2 11/25/2
f 11/25/2 12/28/2 26/27/2
f 27/29/2 25/26/2 26/27/2
f 26/27/2 28/30/2 27/29/2
f 29/31/2 26/27/2 12/28/2
f 12/28/2 13/32/2 29/31/2
f 31/34/2 30/33/2 27/29/2
f 27/29/2 28/30/2 31/34/2
f 32/35/2 30/33/2 31/34/2
f 31/34/2 33/36/2 32/35/2
f 34/37/2 33/36/2 31/34/2
f 31/34/2 35/38/2 34/37/2
f 36/39/2 34/37/2 35/38/2
f 35/38/2 37/40/2 36/39/2
f 38/41/2 36/39/2 37/40/2
f 37/40/2 39/42/2 38/41/2
f 39/42/2 37/40/2 41/44/2
f 41/44/2 40/43/2 39/42/2
f 42/45/2 29/31/2 13/32/2
f 13/32/2 15/46/2 42/45/2
f 40/43/2 41/44/2 42/45/2
f 42/45/2 43/47/2 40/43/2
f 43/47/2 42/45/2 15/46/2
f 15/46/2 17/48/2 43/47/2
f 46/51/3 45/50/3 44/49/3
f 44/49/3 47/52/3 46/51/3
f 34/54/3 48/53/3 46/51/3
f 46/51/3 33/55/3 34/54/3
f 33/55/3 46/51/3 47/52/3
f 47/52/3 32/56/3 33/55/3
f 51/59/3 50/58/3 49/57/3
f 49/57/3 52/60/3 51/59/3
f 54/62/3 53/61/3 50/58/3
f 50/58/3 51/59/3 54/62/3
f 45/50/3 51/59/3 52/60/3
f 52/60/3 44/49/3 45/50/3
f 56/64/3 55/63/3 53/61/3
f 53/61/3 54/62/3 56/64/3
f 58/66/3 57/65/3 55/63/3
f 55/63/3 56/64/3 58/66/3
f 59/67/3 58/66/3 56/64/3
f 56/64/3 60/68/3 59/67/3
f 61/69/3 59/67/3 60/68/3
f 60/68/3 62/70/3 61/69/3
f 38/71/3 61/69/3 62/70/3
f 62/70/3 36/72/3 38/71/3
f 36/72/3 62/70/3 48/53/3
f 48/53/3 34/54/3 36/72/3
f 65/75/4 64/74/4 63/73/4
f 63/73/4 66/76/4 65/75/4
f 53/78/4 67/77/4 65/75/4
f 65/75/4 50/79/4 53/78/4
f 50/79/4 65/75/4 66/76/4
f 66/76/4 49/80/4 50/79/4
f 68/83/4 4/82/4 1/81/4
f 1/81/4 69/84/4 68/83/4
f 70/86/4 8/85/4 4/82/4
f 4/82/4 68/83/4 70/86/4
f 64/74/4 68/83/4 69/84/4
f 69/84/4 63/73/4 64/74/4
f 71/88/4 22/87/4 8/85/4
f 8/85/4 70/86/4 71/88/4
f 72/90/4 24/89/4 22/87/4
f 22/87/4 71/88/4 72/90/4
f 73/91/4 72/90/4 71/88/4
f 71/88/4 74/92/4 73/91/4
f 75/93/4 73/91/4 74/92/4
f 74/92/4 76/94/4 75/93/4
f 57/95/4 75/93/4 76/94/4
f 76/94/4 55/96/4 57/95/4
f 55/96/4 76/94/4 67/77/4
f 67/77/4 53/78/4 55/96/4
f 72/99/5 73/98/5 77/97/5
f 77/97/5 78/100/5 72/99/5
f 24/101/5 72/99/5 78/100/5
f 78/100/5 23/102/5 24/101/5
f 23/102/5 78/100/5 79/104/5
f 79/104/5 19/103/5 23/102/5
f 81/107/5 80/106/5 40/105/5
f 40/105/5 43/108/5 81/107/5
f 19/103/5 79/104/5 81/107/5
f 81/107/5 18/109/5 19/103/5
f 18/109/5 81/107/5 43/108/5
f 43/108/5 17/110/5 18/109/5
f 82/113/5 61/112/5 38/111/5
f 38/111/5 39/114/5 82/113/5
f 83/116/5 59/115/5 61/112/5
f 61/112/5 82/113/5 83/116/5
f 80/106/5 82/113/5 39/114/5
f 39/114/5 40/105/5 80/106/5
f 84/118/5 58/117/5 59/115/5
f 59/115/5 83/116/5 84/118/5
f 75/120/5 57/119/5 58/117/5
f 58/117/5 84/118/5 75/120/5
f 73/98/5 75/120/5 84/118/5
f 84/118/5 77/97/5 73/98/5
f 86/123/6 85/122/6 44/121/6
f 44/121/6 52/124/6 86/123/6
f 63/126/6 87/125/6 86/123/6
f 86/123/6 66/127/6 63/126/6
f 66/127/6 86/123/6 52/124/6
f 52/124/6 49/128/6 66/127/6
f 88/131/6 30/130/6 32/129/6
f 32/129/6 47/132/6 88/131/6
f 89/134/6 27/133/6 30/130/6
f 30/130/6 88/131/6 89/134/6
f 85/122/6 88/131/6 47/132/6
f 47/132/6 44/121/6 85/122/6
f 90/136/6 25/135/6 27/133/6
f 27/133/6 89/134/6 90/136/6
f 9/138/6 11/137/6 25/135/6
f 25/135/6 90/136/6 9/138/6
f 5/139/6 9/138/6 90/136/6
f 90/136/6 91/140/6 5/139/6
f 2/141/6 5/139/6 91/140/6
f 91/140/6 92/142/6 2/141/6
f 1/143/6 2/141/6 92/142/6
f 92/142/6 69/144/6 1/143/6
f 69/144/6 92/142/6 87/125/6
f 87/125/6 63/126/6 69/144/6
f 94/146/5 45/115/5 46/112/5
f 46/112/5 93/145/5 94/146/5
f 96/150/6 62/148/6 60/147/7
f 60/147/7 95/149/6 96/150/6
f 97/154/10 48/152/9 62/151/8
f 62/151/8 96/153/9 97/154/10
f 93/158/13 46/156/12 48/155/11
f 48/155/11 97/157/12 93/158/13
f 99/162/2 56/160/2 54/159/14
f 54/159/14 98/161/2 99/162/2
f 95/149/7 60/147/7 56/163/7
f 56/163/7 99/164/7 95/149/7
f 98/166/14 54/37/2 51/36/2
f 51/36/2 100/165/2 98/166/14
f 100/167/5 51/117/5 45/115/5
f 45/115/5 94/146/5 100/167/5
f 102/169/5 64/98/5 65/120/5
f 65/120/5 101/168/5 102/169/5
f 104/171/7 76/127/6 74/126/6
f 74/126/6 103/170/6 104/171/7
f 105/173/1 67/8/1 76/22/1
f 76/22/1 104/172/1 105/173/1
f 101/174/15 65/4/1 67/8/1
f 67/8/1 105/173/1 101/174/15
f 107/176/3 71/63/3 70/61/3
f 70/61/3 106/175/3 107/176/3
f 103/180/6 74/178/6 71/177/7
f 71/177/7 107/179/6 103/180/6
f 106/175/3 70/61/3 68/58/3
f 68/58/3 108/181/3 106/175/3
f 108/182/5 68/99/5 64/98/5
f 64/98/5 102/169/5 108/182/5
f 110/184/5 28/105/5 26/108/5
f 26/108/5 109/183/5 110/184/5
f 112/186/1 37/15/1 35/13/1
f 35/13/1 111/185/1 112/186/1
f 114/188/16 29/54/3 42/72/3
f 42/72/3 113/187/3 114/188/16
f 115/190/7 41/133/6 37/130/6
f 37/130/6 112/189/6 115/190/7
f 116/191/5 31/114/5 28/105/5
f 28/105/5 110/184/5 116/191/5
f 111/185/1 35/13/1 31/12/1
f 31/12/1 116/192/1 111/185/1
f 113/196/6 42/194/6 41/193/7
f 41/193/7 115/195/6 113/196/6
f 109/200/16 26/198/16 29/197/16
f 29/197/16 114/199/16 109/200/16
f 118/202/5 6/103/5 3/102/5
f 3/102/5 117/201/5 118/202/5
f 120/204/8 16/87/4 14/85/4
f 14/85/4 119/203/4 120/204/8
f 122/206/14 7/32/2 21/46/2
f 21/46/2 121/205/2 122/206/14
f 123/208/7 20/139/6 16/138/6
f 16/138/6 120/207/6 123/208/7
f 124/209/5 10/109/5 6/103/5
f 6/103/5 118/202/5 124/209/5
f 119/203/4 14/85/4 10/82/4
f 10/82/4 124/210/4 119/203/4
f 121/214/7 21/212/7 20/211/7
f 20/211/7 123/213/7 121/214/7
f 117/218/14 3/216/14 7/215/14
f 7/215/14 122/217/14 117/218/14
f 126/220/1 83/19/1 82/18/1
f 82/18/1 125/219/1 126/220/1
f 128/224/2 78/222/2 77/221/14
f 77/221/14 127/223/2 128/224/2
f 125/226/8 82/93/4 80/91/4
f 80/91/4 129/225/4 125/226/8
f 131/228/3 81/69/3 79/67/3
f 79/67/3 130/227/3 131/228/3
f 132/229/1 84/23/1 83/19/1
f 83/19/1 126/220/1 132/229/1
f 127/231/14 77/43/2 84/42/2
f 84/42/2 132/230/2 127/231/14
f 129/235/4 80/233/4 81/232/8
f 81/232/8 131/234/4 129/235/4
f 130/227/3 79/67/3 78/66/3
f 78/66/3 128/236/3 130/227/3
f 134/240/15 85/238/15 86/237/15
f 86/237/15 133/239/15 134/240/15
f 136/244/3 92/242/3 91/241/16
f 91/241/16 135/243/3 136/244/3
f 137/248/14 87/246/14 92/245/14
f 92/245/14 136/247/14 137/248/14
f 133/250/2 86/249/2 87/246/14
f 87/246/14 137/248/2 133/250/2
f 139/254/4 90/252/4 89/251/8
f 89/251/8 138/253/4 139/254/4
f 135/243/16 91/241/16 90/255/16
f 90/255/16 139/256/16 135/243/16
f 138/253/8 89/251/8 88/257/8
f 88/257/8 140/258/8 138/253/8
f 140/260/1 88/259/1 85/238/15
f 85/238/15 134/240/1 140/260/1
f 130/263/18 123/261/17 120/262/18
f 120/262/18 131/264/18 130/263/18
f 128/266/17 121/265/17 123/261/17
f 123/261/17 130/263/17 128/266/17
f 127/269/20 103/267/19 107/268/20
f 107/268/20 128/270/21 127/269/20
f 132/273/20 104/271/21 103/272/20
f 103/272/20 127/274/19 132/273/20
f 126/277/22 95/275/22 99/276/22
f 99/276/22 132/278/22 126/277/22
f 125/281/23 96/279/23 95/280/23
f 95/280/23 126/282/22 125/281/23
f 129/285/25 115/283/24 112/284/25
f 112/284/25 125/286/26 129/285/25
f 131/289/25 113/287/26 115/288/25
f 115/288/25 129/290/24 131/289/25
f 119/293/28 114/291/27 113/292/28
f 113/292/28 120/294/29 119/293/28
f 124/296/27 109/295/27 114/291/27
f 114/291/27 119/293/27 124/296/27
f 139/299/30 124/297/30 118/298/30
f 118/298/30 135/300/30 139/299/30
f 135/300/31 118/298/30 117/301/31
f 117/301/31 136/302/31 135/300/31
f 121/305/32 107/303/32 106/304/32
f 106/304/32 122/306/33 121/305/32
f 122/309/33 106/307/33 108/308/33
f 108/308/33 117/310/33 122/309/33
f 136/313/34 108/311/34 102/312/34
f 102/312/34 137/314/34 136/313/34
f 137/314/35 102/312/34 101/315/35
f 101/315/35 133/316/35 137/314/35
f 104/319/36 99/317/36 98/318/36
f 98/318/36 105/320/37 104/319/36
f 105/323/36 98/321/37 100/322/36
f 100/322/36 101/324/38 105/323/36
f 133/327/39 100/325/39 94/326/39
f 94/326/39 134/328/39 133/327/39
f 134/328/40 94/326/39 93/329/40
f 93/329/40 140/330/40 134/328/40
f 111/333/42 97/331/41 96/332/42
f 96/332/42 112/334/43 111/333/42
f 116/337/45 93/335/44 97/336/45
f 97/336/45 111/338/46 116/337/45
f 140/341/47 116/339/47 110/340/47
f 110/340/47 138/342/47 140/341/47
f 138/342/48 110/340/47 109/343/48
f 109/343/48 139/344/48 138/342/48

